<svg width="301" height="252" viewBox="0 0 301 252" fill="none" xmlns="http://www.w3.org/2000/svg">
<path d="M137.545 122.262L134.555 126.747H125.585L130.07 131.232L127.08 140.202L118.11 143.192L115.12 140.202L116.615 131.232L115.12 126.747H109.14L106.15 129.737L107.645 143.192L112.13 149.172L107.645 153.657L100.17 152.162L89.7051 149.172L86.7151 140.202H79.2401L70.2701 135.717L67.2801 129.737L56.8151 123.757L41.8651 144.687L40.3701 158.142L56.8151 173.092V179.072H61.3001L71.7651 208.972L82.2301 214.952L94.1901 225.417H106.15L110.635 235.882H122.595L128.575 244.852L140.535 250.832V241.862L143.525 244.852L159.97 235.882L167.445 234.387L170.435 243.357L180.9 238.872L189.87 244.852L195.85 241.862L203.325 240.367L204.82 237.377L212.295 232.892L207.81 226.912L203.325 231.397V226.912L206.315 219.437L203.325 213.457L206.315 208.972L204.82 194.022L198.84 185.052L203.325 180.567L194.355 170.102L197.345 164.122L183.89 152.162V146.182L179.405 138.707L171.93 132.727H158.475L153.99 129.737L148.01 128.242L140.535 122.262H137.545Z" fill="#F2F1E6" stroke="#B3B5B7"/>
<path d="M148.01 8.64258L146.515 11.6326H145.02V13.1276V19.1076L149.339 25.0263L155.485 32.5626L159.97 38.5426L153.99 44.5226V53.4926L156.98 54.9876L164.251 57.4061L173.624 62.9447L176.415 72.9276L170.435 75.9176H153.99L142.03 77.4126L136.05 80.4026V86.3825L142.03 93.8576H148.01L146.783 101.289L148.061 103.419L148.01 108.808L143.525 110.303V114.788L140.535 117.778H143.525H145.02H149.505L151.043 123.87V128.982L158.475 132.728H171.93L179.405 138.708L189.87 134.223L206.315 137.213L213.79 132.728V125.253L228.74 123.758L242.195 122.263L257.145 120.768L258.64 125.253L263.125 128.243L266.115 122.263L276.58 110.303H281.065L287.045 87.8775L294.52 78.9076V66.9476L300.5 59.4726V56.4826L297.51 53.4926L299.005 49.0076L291.53 47.5126L269.105 32.5626L248.175 26.5826H240.7V20.6026L234.72 17.6126H230.235L221.265 13.1276L213.79 20.6026H200.335L194.355 17.6126L177.91 11.6326L174.92 16.1176L165.95 11.6326H156.98L148.01 8.64258Z" fill="#F2F1E6" stroke="#B3B5B7"/>
<path d="M122.595 1.16748L121.1 7.14748L109.14 8.64248L104.655 14.6225L103.16 19.1075L68.775 22.0975L55.32 29.5725L53.825 44.5225L38.875 50.5025L28.41 54.9875H20.935L16.45 51.9975L11.965 56.4825H10.47L11.965 57.9775L2.995 68.4425L4.49 69.9374L7.48 74.4224L1.5 81.8974L7.48 84.8874L17.945 87.8774V83.3924L23.925 90.8674H34.39L41.865 83.3924H50.835L40.37 87.8774L41.865 93.8574L43.36 98.3424L37.38 104.322H31.4L32.895 111.797L43.36 110.302L56.0343 122.592L56.8864 123.757L67.28 129.737L70.27 135.717L79.24 140.202H86.715L89.705 149.172L100.17 152.162L107.645 153.657L112.13 149.172L107.645 143.192L106.15 129.737L109.14 126.747H115.12L116.615 131.232L115.12 140.202L118.11 143.192L127.08 140.202L130.07 131.232L125.585 126.747H134.555L137.545 122.262H140.535L148.01 128.242L152.495 129.737V123.757L149.505 117.777H145.02H143.525H140.535L143.525 114.787V110.302L148.01 108.807L149.505 102.827L148.01 101.332V93.8574H142.03L136.05 86.3824V81.8974L142.03 77.4125L153.99 75.9174H170.435L176.415 72.9275L174.92 62.4625L165.95 54.9875H156.98L153.99 53.4925V44.5225L159.97 38.5425L155.485 32.5625L151 23.5925L146.515 19.1075V13.1275L145.02 11.6325L134.555 8.64248L130.07 2.66248L122.595 1.16748Z" fill="#F2F1E6" stroke="#B3B5B7"/>
<circle opacity="0.2" cx="148.5" cy="116.5" r="91.5" fill="#FFD600"/>
<circle opacity="0.4" cx="148.5" cy="116.5" r="53.5" fill="#FFD600"/>
<path d="M148 123.167C152 118.967 154 114.967 154 111.167C154 107.854 151.314 105.167 148 105.167C144.686 105.167 142 107.854 142 111.167C142 114.967 144 118.967 148 123.167Z" stroke="#1A0D1F" stroke-width="1.5" stroke-linecap="round" stroke-linejoin="round"/>
<path d="M148.25 112.667C148.94 112.667 149.5 112.108 149.5 111.417C149.5 110.727 148.94 110.167 148.25 110.167C147.56 110.167 147 110.727 147 111.417C147 112.108 147.56 112.667 148.25 112.667Z" fill="#1A0D1F"/>
<path d="M92.0132 157.135C91.8212 157.055 91.7252 156.815 91.7892 156.623L95.9332 146.799H90.5252C90.3172 146.799 90.1412 146.623 90.1412 146.415C90.1412 146.207 90.3172 146.031 90.5252 146.031H96.4452C96.5252 146.015 96.6052 146.015 96.6852 146.047C96.7812 146.095 96.8612 146.191 96.8932 146.287C96.9092 146.335 96.9252 146.367 96.9252 146.415C96.9252 146.495 96.9092 146.559 96.8612 146.623L92.5252 156.927C92.4612 157.071 92.3172 157.167 92.1732 157.167C92.1092 157.167 92.0772 157.167 92.0132 157.135ZM104.793 156.783V149.727C104.793 149.503 104.969 149.343 105.193 149.343C105.385 149.343 105.561 149.503 105.561 149.727V151.455C105.593 151.391 105.625 151.327 105.673 151.263C106.265 150.335 107.305 149.343 108.809 149.343C109.017 149.343 109.193 149.503 109.193 149.727C109.193 149.935 109.017 150.111 108.809 150.111C107.785 150.111 107.081 150.687 106.537 151.391C106.009 152.095 105.705 152.895 105.593 153.215C105.561 153.279 105.561 153.311 105.561 153.343V156.783C105.561 157.007 105.385 157.167 105.193 157.167C104.969 157.167 104.793 157.007 104.793 156.783ZM111.664 153.967V149.695C111.664 149.471 111.84 149.311 112.048 149.311C112.256 149.311 112.432 149.471 112.432 149.695V153.967C112.432 155.311 113.504 156.383 114.832 156.399C116.176 156.383 117.264 155.311 117.264 153.967V149.695C117.264 149.471 117.456 149.311 117.648 149.311C117.872 149.311 118.048 149.471 118.048 149.695V153.967C118.048 155.727 116.624 157.167 114.832 157.167C113.072 157.167 111.664 155.727 111.664 153.967ZM124.884 157.167C122.772 157.167 121.076 155.407 121.076 153.263C121.076 151.087 122.772 149.327 124.884 149.327C126.9 149.327 128.5 150.927 128.66 152.975V152.991V153.039C128.66 153.247 128.484 153.391 128.276 153.391H121.844C121.924 155.103 123.268 156.399 124.884 156.399C125.924 156.399 126.884 155.855 127.412 154.975C127.524 154.783 127.764 154.751 127.924 154.847C128.1 154.975 128.164 155.199 128.052 155.391C127.38 156.463 126.212 157.167 124.884 157.167ZM124.884 150.095C123.412 150.095 122.18 151.151 121.892 152.639H127.828C127.572 151.167 126.324 150.095 124.884 150.095ZM142.455 156.783V155.647C141.767 156.575 140.679 157.167 139.447 157.167C137.335 157.167 135.655 155.407 135.655 153.263C135.655 151.087 137.335 149.327 139.447 149.327C140.679 149.327 141.767 149.935 142.455 150.863V146.351C142.455 146.143 142.631 145.967 142.855 145.967C143.063 145.967 143.239 146.143 143.239 146.351V153.103V153.263V156.783C143.239 156.991 143.063 157.167 142.855 157.167C142.631 157.167 142.455 156.991 142.455 156.783ZM139.447 156.383C141.063 156.383 142.391 155.055 142.455 153.391V153.135C142.391 151.455 141.063 150.111 139.447 150.111C137.799 150.111 136.439 151.519 136.439 153.263C136.439 154.991 137.799 156.383 139.447 156.383ZM146.586 153.967V149.695C146.586 149.471 146.762 149.311 146.97 149.311C147.178 149.311 147.354 149.471 147.354 149.695V153.967C147.354 155.311 148.426 156.383 149.754 156.399C151.098 156.383 152.186 155.311 152.186 153.967V149.695C152.186 149.471 152.378 149.311 152.57 149.311C152.794 149.311 152.97 149.471 152.97 149.695V153.967C152.97 155.727 151.546 157.167 149.754 157.167C147.994 157.167 146.586 155.727 146.586 153.967ZM161.035 151.519C161.035 148.335 163.643 145.823 166.859 145.807C168.235 145.807 169.499 146.287 170.475 147.039C170.651 147.183 170.683 147.455 170.539 147.599C170.411 147.791 170.155 147.807 169.995 147.679C169.131 147.007 168.043 146.591 166.859 146.591C164.059 146.591 161.819 148.783 161.819 151.519C161.819 154.191 164.059 156.383 166.859 156.383C168.043 156.383 169.131 155.999 169.963 155.295C170.155 155.167 170.411 155.199 170.523 155.391C170.683 155.535 170.651 155.823 170.475 155.951C169.499 156.703 168.235 157.167 166.859 157.167C163.643 157.167 161.035 154.639 161.035 151.519ZM179.891 149.327C180.099 149.327 180.275 149.487 180.275 149.711V156.783C180.275 156.991 180.099 157.167 179.891 157.167C179.683 157.167 179.507 156.991 179.507 156.783V155.615C178.835 156.543 177.763 157.167 176.563 157.167C174.499 157.167 172.851 155.391 172.851 153.247C172.851 151.103 174.499 149.327 176.563 149.327C177.763 149.327 178.835 149.935 179.507 150.863V149.711C179.507 149.487 179.683 149.327 179.891 149.327ZM176.563 156.399C178.179 156.399 179.507 155.007 179.507 153.247C179.507 151.487 178.179 150.079 176.563 150.079C174.963 150.079 173.619 151.487 173.619 153.247C173.619 155.007 174.963 156.399 176.563 156.399ZM183.605 156.783V149.727C183.605 149.503 183.781 149.343 184.005 149.343C184.197 149.343 184.373 149.503 184.373 149.727V151.455C184.405 151.391 184.437 151.327 184.485 151.263C185.077 150.335 186.117 149.343 187.621 149.343C187.829 149.343 188.005 149.503 188.005 149.727C188.005 149.935 187.829 150.111 187.621 150.111C186.597 150.111 185.893 150.687 185.349 151.391C184.821 152.095 184.517 152.895 184.405 153.215C184.373 153.279 184.373 153.311 184.373 153.343V156.783C184.373 157.007 184.197 157.167 184.005 157.167C183.781 157.167 183.605 157.007 183.605 156.783ZM189.862 153.247C189.862 151.119 191.526 149.327 193.574 149.327C195.638 149.327 197.286 151.119 197.286 153.247C197.286 155.375 195.638 157.167 193.574 157.167C191.526 157.167 189.862 155.375 189.862 153.247ZM190.63 153.247C190.63 154.991 191.974 156.399 193.574 156.399C195.174 156.399 196.518 154.991 196.518 153.247C196.518 151.503 195.174 150.079 193.574 150.079C191.974 150.079 190.63 151.503 190.63 153.247ZM200.246 156.783V149.711C200.246 149.487 200.422 149.327 200.63 149.327C200.854 149.327 201.03 149.487 201.03 149.711V156.783C201.03 156.991 200.854 157.167 200.63 157.167C200.422 157.167 200.246 156.991 200.246 156.783ZM200.246 147.519V147.151C200.246 146.943 200.422 146.767 200.63 146.767C200.854 146.767 201.03 146.943 201.03 147.151V147.519C201.03 147.743 200.854 147.935 200.63 147.935C200.422 147.935 200.246 147.743 200.246 147.519ZM204.498 156.783V146.351C204.498 146.143 204.674 145.967 204.882 145.967C205.106 145.967 205.282 146.143 205.282 146.351V156.783C205.282 156.991 205.106 157.167 204.882 157.167C204.674 157.167 204.498 156.991 204.498 156.783ZM97.0304 175.783V173.863H90.9664H90.9504H90.9184C90.8384 173.863 90.7424 173.847 90.6784 173.783C90.5024 173.655 90.4864 173.399 90.6304 173.239L97.1104 165.175L97.1264 165.159C97.2704 164.983 97.4944 164.967 97.6704 165.111C97.7344 165.159 97.7664 165.239 97.7984 165.303C97.7984 165.335 97.8144 165.351 97.8144 165.367V165.415V173.095H98.5664C98.7904 173.095 98.9664 173.271 98.9664 173.479C98.9664 173.687 98.7904 173.863 98.5664 173.863H97.8144V175.783C97.8144 175.991 97.6384 176.167 97.4144 176.167C97.2064 176.167 97.0304 175.991 97.0304 175.783ZM91.7344 173.095H97.0304V166.535L91.7344 173.095ZM107.655 175.783V173.863H101.591H101.575H101.543C101.463 173.863 101.367 173.847 101.303 173.783C101.127 173.655 101.111 173.399 101.255 173.239L107.735 165.175L107.751 165.159C107.895 164.983 108.119 164.967 108.295 165.111C108.359 165.159 108.391 165.239 108.423 165.303C108.423 165.335 108.439 165.351 108.439 165.367V165.415V173.095H109.191C109.415 173.095 109.591 173.271 109.591 173.479C109.591 173.687 109.415 173.863 109.191 173.863H108.439V175.783C108.439 175.991 108.263 176.167 108.039 176.167C107.831 176.167 107.655 175.991 107.655 175.783ZM102.359 173.095H107.655V166.535L102.359 173.095ZM113.376 175.783V166.103L111.792 167.031C111.744 167.063 111.664 167.095 111.6 167.095C111.456 167.095 111.328 167.015 111.264 166.903C111.152 166.695 111.216 166.471 111.408 166.375L113.568 165.063C113.744 164.967 114 165.031 114.096 165.207C114.144 165.303 114.16 165.399 114.144 165.495V175.783C114.144 175.991 113.984 176.167 113.76 176.167C113.552 176.167 113.376 175.991 113.376 175.783ZM117.087 168.647C117.087 166.615 118.751 164.967 120.783 164.967C122.703 164.967 124.255 166.391 124.463 168.231C124.479 168.263 124.479 168.279 124.495 168.311C124.511 168.615 124.527 168.935 124.527 169.271C124.527 170.759 124.207 172.407 123.455 173.735C122.687 175.063 121.375 176.103 119.535 176.167H119.519C119.295 176.167 119.119 176.007 119.119 175.799C119.119 175.575 119.279 175.399 119.503 175.383C121.055 175.319 122.079 174.519 122.767 173.351C123.151 172.679 123.423 171.911 123.567 171.111C122.895 171.879 121.903 172.343 120.783 172.343C118.751 172.343 117.087 170.711 117.087 168.647ZM120.783 171.559C122.415 171.559 123.711 170.279 123.711 168.647C123.711 167.047 122.415 165.751 120.783 165.751C119.183 165.751 117.871 167.047 117.871 168.647C117.871 170.279 119.183 171.559 120.783 171.559ZM128.409 174.471C127.721 173.447 127.337 172.071 127.337 170.567C127.337 169.063 127.721 167.687 128.409 166.647C129.097 165.655 130.073 164.967 131.209 164.967C132.345 164.967 133.321 165.655 134.009 166.647C134.681 167.687 135.097 169.063 135.097 170.567C135.097 172.071 134.681 173.447 134.009 174.471C133.321 175.479 132.345 176.167 131.209 176.167C130.073 176.167 129.097 175.479 128.409 174.471ZM129.065 167.095C128.489 167.959 128.121 169.191 128.121 170.567C128.121 171.943 128.489 173.175 129.065 174.039C129.641 174.887 130.409 175.383 131.209 175.383C132.009 175.383 132.761 174.887 133.353 174.039C133.929 173.175 134.313 171.943 134.313 170.567C134.313 169.191 133.929 167.959 133.353 167.095C132.761 166.215 132.009 165.751 131.209 165.751C130.409 165.751 129.641 166.215 129.065 167.095ZM152.405 171.127H149.349C149.125 171.127 148.949 170.967 148.949 170.743C148.949 170.519 149.125 170.343 149.349 170.343H152.805H152.853C153.045 170.359 153.205 170.535 153.205 170.743V174.583V174.647C153.189 174.759 153.141 174.871 153.061 174.935C152.069 175.719 150.821 176.167 149.445 176.167C146.229 176.151 143.621 173.639 143.621 170.471C143.621 167.351 146.229 164.807 149.445 164.807C150.837 164.807 152.069 165.287 153.077 166.071C153.221 166.183 153.269 166.455 153.125 166.615C152.997 166.775 152.757 166.807 152.565 166.679C151.749 166.007 150.645 165.591 149.445 165.591C146.645 165.591 144.405 167.783 144.405 170.471C144.405 173.191 146.645 175.383 149.445 175.383C150.533 175.383 151.573 175.031 152.405 174.423V171.127ZM160.22 176.167C158.108 176.167 156.412 174.407 156.412 172.263C156.412 170.087 158.108 168.327 160.22 168.327C162.236 168.327 163.836 169.927 163.996 171.975V171.991V172.039C163.996 172.247 163.82 172.391 163.612 172.391H157.18C157.26 174.103 158.604 175.399 160.22 175.399C161.26 175.399 162.22 174.855 162.748 173.975C162.86 173.783 163.1 173.751 163.26 173.847C163.436 173.975 163.5 174.199 163.388 174.391C162.716 175.463 161.548 176.167 160.22 176.167ZM160.22 169.095C158.748 169.095 157.516 170.151 157.228 171.639H163.164C162.908 170.167 161.66 169.095 160.22 169.095ZM159.324 167.047C159.532 167.047 159.644 167.015 159.836 166.839L161.116 165.607C161.212 165.511 161.292 165.415 161.292 165.319C161.292 165.159 160.924 164.951 160.62 164.951C160.428 164.951 160.3 165.047 160.172 165.239L159.18 166.727C159.148 166.775 159.116 166.839 159.116 166.903C159.116 166.983 159.212 167.047 159.324 167.047ZM169.074 168.327C169.266 168.327 169.458 168.519 169.458 168.711C169.458 168.903 169.266 169.095 169.074 169.095H168.066V174.807C168.066 175.191 168.45 175.383 168.642 175.383C168.834 175.383 169.042 175.591 169.042 175.783C169.042 175.975 168.834 176.167 168.642 176.167C167.858 176.167 167.266 175.591 167.266 174.807V169.095H166.29C165.906 169.095 165.906 168.903 165.906 168.711C165.906 168.519 165.906 168.327 166.29 168.327H167.266V165.415C167.266 165.223 167.458 165.031 167.65 165.031C167.858 165.031 168.066 165.223 168.066 165.415V168.327H169.074ZM173.145 175.783V168.711C173.145 168.487 173.321 168.327 173.529 168.327C173.753 168.327 173.929 168.487 173.929 168.711V175.783C173.929 175.991 173.753 176.167 173.529 176.167C173.321 176.167 173.145 175.991 173.145 175.783ZM173.145 166.519V166.151C173.145 165.943 173.321 165.767 173.529 165.767C173.753 165.767 173.929 165.943 173.929 166.151V166.519C173.929 166.743 173.753 166.935 173.529 166.935C173.321 166.935 173.145 166.743 173.145 166.519ZM184.477 168.711V175.543C184.477 177.575 182.829 179.223 180.781 179.223C180.205 179.223 179.661 179.079 179.149 178.855C178.989 178.743 178.893 178.519 178.989 178.343C179.085 178.135 179.309 178.055 179.501 178.167C179.901 178.359 180.301 178.455 180.781 178.455C182.413 178.455 183.709 177.159 183.709 175.543V174.583C183.053 175.527 181.981 176.119 180.781 176.119C178.733 176.119 177.101 174.375 177.101 172.215C177.101 170.103 178.733 168.327 180.781 168.327C181.981 168.327 183.053 168.935 183.709 169.863V168.711C183.709 168.503 183.885 168.327 184.109 168.327C184.301 168.327 184.477 168.503 184.477 168.711ZM180.781 175.367C182.397 175.367 183.709 173.975 183.709 172.215C183.709 170.471 182.397 169.095 180.781 169.095C179.181 169.095 177.869 170.471 177.869 172.215C177.869 173.975 179.181 175.367 180.781 175.367ZM193.791 175.783V171.527C193.791 170.199 192.719 169.111 191.375 169.111C190.047 169.111 188.975 170.199 188.943 171.527V175.783V175.847C188.927 175.911 188.911 175.975 188.863 176.023C188.799 176.119 188.687 176.167 188.575 176.167H188.479C188.367 176.135 188.271 176.055 188.223 175.959C188.207 175.943 188.207 175.927 188.207 175.911C188.207 175.895 188.191 175.879 188.191 175.879V175.783V171.527V171.399V168.727C188.191 168.519 188.351 168.343 188.575 168.343C188.783 168.343 188.943 168.519 188.943 168.727V169.479C189.519 168.791 190.399 168.343 191.375 168.343C193.135 168.343 194.559 169.783 194.559 171.527V175.783C194.559 176.007 194.383 176.167 194.175 176.167C193.967 176.167 193.791 176.007 193.791 175.783ZM201.252 176.167C199.14 176.167 197.444 174.407 197.444 172.263C197.444 170.087 199.14 168.327 201.252 168.327C203.268 168.327 204.868 169.927 205.028 171.975V171.991V172.039C205.028 172.247 204.852 172.391 204.644 172.391H198.212C198.292 174.103 199.636 175.399 201.252 175.399C202.292 175.399 203.252 174.855 203.78 173.975C203.892 173.783 204.132 173.751 204.292 173.847C204.468 173.975 204.532 174.199 204.42 174.391C203.748 175.463 202.58 176.167 201.252 176.167ZM201.252 169.095C199.78 169.095 198.548 170.151 198.26 171.639H204.196C203.94 170.167 202.692 169.095 201.252 169.095ZM200.356 167.047C200.564 167.047 200.676 167.015 200.868 166.839L202.148 165.607C202.244 165.511 202.324 165.415 202.324 165.319C202.324 165.159 201.956 164.951 201.652 164.951C201.46 164.951 201.332 165.047 201.204 165.239L200.212 166.727C200.18 166.775 200.148 166.839 200.148 166.903C200.148 166.983 200.244 167.047 200.356 167.047Z" fill="#1A0D1F"/>
</svg>
